<?xml version="1.0" standalone="no"?>
<!DOCTYPE svg PUBLIC "-//W3C//DTD SVG 1.1//EN" "http://www.w3.org/Graphics/SVG/1.1/DTD/svg11.dtd" >
<svg xmlns="http://www.w3.org/2000/svg">
<metadata>
Created by FontForge 20120731 at Sun Jul 16 18:00:34 2017
 By admin
</metadata>
<defs>
<font id="iconfont" horiz-adv-x="1024" >
  <font-face 
    font-family="iconfont"
    font-weight="500"
    font-stretch="normal"
    units-per-em="1024"
    panose-1="2 0 6 3 0 0 0 0 0 0"
    ascent="896"
    descent="-128"
    x-height="792"
    bbox="0 -212 1208 896"
    underline-thickness="0"
    underline-position="0"
    unicode-range="U+0078-E8F1"
  />
<missing-glyph 
 />
    <glyph glyph-name=".notdef" 
 />
    <glyph glyph-name=".notdef" 
 />
    <glyph glyph-name=".null" horiz-adv-x="0" 
 />
    <glyph glyph-name="nonmarkingreturn" horiz-adv-x="341" 
 />
    <glyph glyph-name="x" unicode="x" horiz-adv-x="1001" 
d="M281 543q-27 -1 -53 -1h-83q-18 0 -36.5 -6t-32.5 -18.5t-23 -32t-9 -45.5v-76h912v41q0 16 -0.5 30t-0.5 18q0 13 -5 29t-17 29.5t-31.5 22.5t-49.5 9h-133v-97h-438v97zM955 310v-52q0 -23 0.5 -52t0.5 -58t-10.5 -47.5t-26 -30t-33 -16t-31.5 -4.5q-14 -1 -29.5 -0.5
t-29.5 0.5h-32l-45 128h-439l-44 -128h-29h-34q-20 0 -45 1q-25 0 -41 9.5t-25.5 23t-13.5 29.5t-4 30v167h911zM163 247q-12 0 -21 -8.5t-9 -21.5t9 -21.5t21 -8.5q13 0 22 8.5t9 21.5t-9 21.5t-22 8.5zM316 123q-8 -26 -14 -48q-5 -19 -10.5 -37t-7.5 -25t-3 -15t1 -14.5
t9.5 -10.5t21.5 -4h37h67h81h80h64h36q23 0 34 12t2 38q-5 13 -9.5 30.5t-9.5 34.5q-5 19 -11 39h-368zM336 498v228q0 11 2.5 23t10 21.5t20.5 15.5t34 6h188q31 0 51.5 -14.5t20.5 -52.5v-227h-327z" />
    <glyph glyph-name="home" unicode="&#xe79d;" 
d="M512 789l-469 -470l31 -31l97 97v-438h682v438l97 -97l31 31zM597 -11h-170v299h170v-299zM811 -11h-171v342h-256v-342h-171v438l299 299l299 -299v-438z" />
    <glyph glyph-name="querycondition" unicode="&#xe721;" 
d="M434 276q-31 59 -31 127v0q0 77 40.5 144.5t111.5 103.5v0q60 31 127 31v0q77 0 144.5 -40.5t103.5 -111.5v0l-38 -20l38 20q31 -60 31 -127v0q0 -77 -40.5 -144.5t-111.5 -104.5v0q-60 -30 -127 -30v0q-77 0 -144.5 40.5t-103.5 111.5v0zM594 575q-50 -25 -78 -72
t-28 -100v0q0 -47 21 -88v0q26 -50 72.5 -78t100.5 -28v0q47 0 88 21v0q49 26 77 73t28 100v0q0 46 -21 88v0q-25 50 -71.5 78t-100.5 28v0q-46 0 -88 -22v0zM902 -73l-149 243q-9 15 -5 32.5t19 26.5v0q15 9 32.5 5t26.5 -19v0l149 -243q9 -15 5 -32.5t-19 -26.5v0
q-10 -6 -22 -6v0q-24 0 -37 20v0zM85 540q-17 0 -29.5 12.5t-12.5 29.5v0q0 18 12.5 30.5t29.5 12.5v0h249q18 0 30.5 -12.5t12.5 -30.5v0q0 -17 -12.5 -29.5t-30.5 -12.5v0h-249v0zM85 255q-17 0 -29.5 12.5t-12.5 30.5v0q0 18 12.5 30.5t29.5 12.5v0h214q17 0 29.5 -12.5
t12.5 -30.5v0q0 -18 -12.5 -30.5t-29.5 -12.5v0h-214v0zM85 -29q-17 0 -29.5 12.5t-12.5 30.5v0q0 17 12.5 29.5t29.5 12.5v0h427q18 0 30.5 -12.5t12.5 -29.5v0q0 -18 -12.5 -30.5t-30.5 -12.5v0h-427v0z" />
    <glyph glyph-name="back" unicode="&#xe697;" 
d="M364 423q-20 -18 -20 -44t21 -44l309 -271q7 -6 15.5 -5.5t14.5 7.5t5.5 15.5t-7.5 14.5l-309 271q-14 12 -1 24l310 281q7 6 7.5 15t-5.5 15.5t-15 7t-15 -5.5z" />
    <glyph glyph-name="less" unicode="&#xe6a5;" 
d="M510 509q12 14 25 0l270 -310q6 -6 15 -7t15.5 5t7 15t-5.5 15l-270 310q-18 20 -44 20.5t-45 -20.5l-280 -309q-6 -7 -6 -16t7 -14.5t15.5 -5.5t14.5 7z" />
    <glyph glyph-name="moreunfold" unicode="&#xe6a6;" 
d="M478 252q19 -20 45 -20t44 21l270 309q6 7 5.5 15.5t-7 14.5t-15.5 5.5t-15 -7.5l-270 -309q-13 -14 -25 -1l-281 310q-6 7 -14.5 7.5t-15.5 -5.5t-7 -15t6 -15z" />
    <glyph glyph-name="more" unicode="&#xe6a7;" 
d="M642 391q14 -12 0 -24l-309 -271q-7 -6 -7.5 -14.5t5 -15.5t14.5 -7.5t16 5.5l309 271q21 18 21 44t-20 44l-310 281q-7 6 -15.5 5.5t-14.5 -7t-5.5 -15.5t6.5 -15z" />
    <glyph glyph-name="fangdajing" unicode="&#xe601;" 
d="M938.5 -137.5q-9.5 -9.5 -23 -9.5t-22.5 10l-206 203q26 20 48 43l204 -201q9 -10 9 -23t-9.5 -22.5zM431.5 44q-96.5 0 -178.5 47t-129.5 128t-47.5 176.5t47.5 176.5t129.5 128t178.5 47t178.5 -47t129.5 -128t47.5 -176.5t-47.5 -176.5t-129.5 -128t-178.5 -47z
M431.5 683q-120.5 0 -206 -84t-85.5 -203t85.5 -203.5t206 -84.5t205.5 84.5t85 203.5t-85 203t-205.5 84z" />
    <glyph glyph-name="bofangqibofang" unicode="&#xe600;" 
d="M175 805l711 -489q10 -6 10 -15.5t-10 -16.5l-711 -489q-9 -7 -23 -7t-24 7v1010q10 7 24 7t23 -7z" />
    <glyph glyph-name="shopping" unicode="&#xe628;" horiz-adv-x="1071" 
d="M907.5 -26q-38.5 0 -66 -27t-27.5 -65.5t27.5 -66t66 -27.5t66 27.5t27.5 66t-27.5 65.5t-66 27zM907.5 -165q-19.5 0 -33 13.5t-13.5 32.5t13.5 33t33 14t33 -14t13.5 -33t-13.5 -32.5t-33 -13.5zM442.5 -26q-38.5 0 -66 -27t-27.5 -65.5t27.5 -66t66 -27.5t65.5 27.5
t27 66t-27 65.5t-65.5 27zM442 -165q-19 0 -32.5 13.5t-13.5 32.5t13.5 33t32.5 14t33 -14t14 -33t-14 -32.5t-33 -13.5zM1062 672h-821q-6 0 -8 -5l-38 120q-2 6 -9 7v10q0 8 -8 8h-170q-8 0 -8 -8v-30q0 -9 8 -9h145l168 -524q1 -3 3 -5v-1l-65 -170q-3 -2 -3 -6v-2
q-1 -3 0 -6v-22q0 -8 8 -8h728q9 0 9 8v30q0 8 -9 8h-682l53 140h583q8 0 8 8v23l109 388q7 0 7 8v30q0 8 -8 8zM910 253h-544v1.5t-1 0.5l-118 371h767zM467 332q3 -11 14 -8l23 6q11 3 8 14l-60 202q-3 11 -14 8l-23 -6q-11 -3 -8 -14zM613 323h30q9 0 9 8v217q0 8 -9 8
h-30q-8 0 -8 -8v-217q0 -8 8 -8zM755 331l24 -6q12 -3 16 8l64 201q3 11 -9 14l-24 6q-12 3 -15 -8l-65 -201q-3 -11 9 -14z" />
    <glyph glyph-name="location" unicode="&#xe602;" 
d="M334 680q-1 0 -5 6t-4 9q0 8 8.5 8t8.5 -8q0 -3 -3.5 -9t-4.5 -6zM334 695zM330 695q0 4 4 4t4 -4t-4 -4t-4 4zM519 -189l-7 -3l-7 3q-22 7 -81.5 82t-121.5 171t-110.5 199.5t-48.5 159.5q0 100 49.5 185t134.5 134.5t185 49.5t185 -49.5t134.5 -134.5t49.5 -185
q0 -56 -48.5 -159t-110.5 -199t-121.5 -171t-81.5 -83zM512 751q-89 0 -164.5 -44t-119.5 -119.5t-44 -164.5q0 -48 42.5 -139t98.5 -179t109.5 -160t77.5 -91q24 19 77 91.5t109.5 160.5t99 179t42.5 138q0 89 -44 164.5t-119.5 119.5t-164.5 44zM512 249q-72 0 -123 51
t-51 123t51 123t123 51t123 -51t51 -123t-51 -123t-123 -51zM512 556q-55 0 -94 -39t-39 -94t39 -94t94 -39t94 39t39 94t-39 94t-94 39z" />
    <glyph glyph-name="icon2" unicode="&#xe605;" 
d="M337 384q0 -35 13.5 -67t38 -56.5t56.5 -38t67 -13.5t67 13.5t56.5 38t38 56.5t13.5 67t-13.5 67t-38 56.5t-56.5 38t-67 13.5t-67 -13.5t-56.5 -38t-38 -56.5t-13.5 -67v0zM512 695q128 0 219.5 -91.5t91.5 -219.5t-91.5 -219.5t-219.5 -91.5t-219.5 91.5t-91.5 219.5
t91.5 219.5t219.5 91.5zM512 772q-105 0 -194.5 -52t-141.5 -141.5t-52 -194.5t52 -194.5t141.5 -141.5t194.5 -52t194.5 52t141.5 141.5t52 194.5t-52 194.5t-141.5 141.5t-194.5 52v0v0zM512 772z" />
    <glyph glyph-name="icon24" unicode="&#xe6c0;" 
d="M1005 -96q-39 115 -121 202.5t-193 130.5q82 48 127.5 129.5t45.5 177.5q0 145 -102 248.5t-250 103.5t-250 -103.5t-102 -248.5q0 -94 47 -176t126 -131q-113 -44 -197 -132t-117 -201q-4 -9 2 -17.5t17 -14.5h7q6 0 12.5 5.5t6.5 13.5q39 122 130.5 206t215.5 108
q9 0 14 7.5t5 17.5q0 16 -19 26q-89 34 -144 111.5t-55 176.5q0 125 88 213t213 88t213 -88t88 -213q0 -96 -56.5 -175t-148.5 -113q-19 -10 -19 -26t19 -25q122 -29 215 -112.5t131 -201.5q9 -19 32 -19q14 5 19 13.5t0 18.5z" />
    <glyph glyph-name="leguansirendiantai" unicode="&#xe634;" 
d="M768 80h-512q-26 0 -45 19t-19 45v384q0 27 19 45.5t45 18.5h73l290 95q10 3 18.5 -2t11 -15t-2.5 -18.5t-14 -10.5l-148 -49h284q26 0 45 -18.5t19 -45.5v-384q0 -26 -19 -45t-45 -19zM784 512q0 13 -9.5 22.5t-22.5 9.5h-480q-13 0 -22.5 -9.5t-9.5 -22.5v-352
q0 -13 9.5 -22.5t22.5 -9.5h480q13 0 22.5 9.5t9.5 22.5v352zM712 208h-112q-10 0 -17 7t-7 17t7 17t17 7h112q10 0 17 -7t7 -17t-7 -17t-17 -7zM696 352q10 0 17 -7t7 -17t-7 -17t-17 -7h-80q-10 0 -17 7t-7 17t7 17t17 7h80zM712 400h-112q-10 0 -17 7t-7 17t7 17t17 7
h112q10 0 17 -7t7 -17t-7 -17t-17 -7zM408 218q-5 3 -13 9.5t-29 25t-37 35.5t-29 38.5t-13 37.5q0 39 22.5 59t51.5 12.5t47 -41.5q18 34 47 41.5t51.5 -12.5t22.5 -59q0 -16 -12.5 -37t-30 -39.5t-35.5 -34.5t-30.5 -26t-12.5 -9z" />
    <glyph glyph-name="shezhi" unicode="&#xe621;" 
d="M588 -16h-149q-20 0 -34 12.5t-15 30.5l-8 48q-40 16 -74 42l-49 -19l-1 -1q-31 -10 -53 12l-3 2l-77 135l-1 1q-16 32 10 58l1 1l43 35q-3 22 -3 44q0 20 2 40l-42 32l-1 2q-13 13 -16.5 30t5.5 31l75 132l3 3q26 25 57 15l2 -1l44 -18q35 27 75 44l7 49q1 18 16.5 30.5
t32.5 12.5h149q24 0 38 -20q10 -14 8 -30l6 -38q44 -18 81 -46l43 17h1q32 10 53 -11l3 -3l78 -136q16 -32 -10 -57l-1 -2l-38 -30q3 -23 3 -46q0 -21 -3 -44l41 -28q18 -11 21 -33q1 -15 -6 -29l-1 -2l-74 -130q-8 -16 -27 -22q-18 -6 -34 1l-49 20q-34 -26 -72 -42l-8 -49
q-1 -18 -16.5 -30.5t-32.5 -12.5zM449 45h129l11 75l17 7q48 17 85 49l15 13l73 -30l63 110l-63 44l4 20q5 27 5 52q0 26 -5 52l-4 18l56 46l-62 108l-67 -27l-14 12q-41 36 -93 53l-18 6l-11 72h-125l-11 -75l-17 -6q-48 -18 -87 -52l-14 -12l-72 29l-62 -110l62 -47
l-3 -19q-5 -25 -5 -48q0 -25 5 -51l4 -18l-61 -50l62 -108l73 30l14 -12q39 -33 87 -50l17 -6zM512 236q-62 0 -105.5 44t-43.5 105.5t43.5 105.5t105.5 44t105.5 -44t43.5 -105.5t-43.5 -105.5t-105.5 -44zM512 473q-36 0 -62 -25.5t-26 -62t26 -62t62 -25.5t62 25.5t26 62
t-26 62t-62 25.5z" />
    <glyph glyph-name="iconfontpaixingbang2" unicode="&#xe78e;" horiz-adv-x="1110" 
d="M464 -65h225v899h-225v-899zM126 -65h225v449h-225v-449zM802 -65h225v618h-225v-618z" />
    <glyph glyph-name="rili" unicode="&#xe6c9;" 
d="M875 -63h-728q-35 0 -59.5 24.5t-24.5 59.5v644q0 35 24.5 59.5t59.5 24.5h112v-56h-140v-700h784v700h-140v56h112q35 0 59.5 -24.5t24.5 -59.5v-644q0 -35 -24.5 -59.5t-59.5 -24.5zM651 497h112v-84h-112v84zM763 133h-112v84h112v-84zM651 357h112v-84h-112v84z
M693.5 609q-17.5 0 -30 12t-12.5 30v140q0 17 12.5 29.5t30 12.5t29.5 -12.5t12 -29.5v-140q0 -18 -12 -30t-29.5 -12zM455 497h112v-84h-112v84zM567 133h-112v84h112v-84zM455 357h112v-84h-112v84zM399 749h224v-56h-224v56zM259 217h112v-84h-112v84zM259 357h112v-84
h-112v84zM259 497h112v-84h-112v84zM329.5 609q-17.5 0 -30 12t-12.5 30v140q0 17 12.5 29.5t30 12.5t29.5 -12.5t12 -29.5v-140q0 -18 -12 -30t-29.5 -12z" />
    <glyph glyph-name="bofang" unicode="&#xe62e;" 
d="M512 896q-139 0 -257 -68.5t-186.5 -186.5t-68.5 -257t68.5 -257t186.5 -186.5t257 -68.5t257 68.5t186.5 186.5t68.5 257t-68.5 257t-186.5 186.5t-257 68.5v0v0zM512 -95q-98 0 -187 37.5t-153 101.5t-101.5 153t-37.5 187t37.5 187t101.5 153t153 101.5t187 37.5
t187 -37.5t153 -101.5t101.5 -153t37.5 -187t-37.5 -187t-101.5 -153t-153 -101.5t-187 -37.5v0v0zM733 392l-340 197q-6 6 -12 0q-3 0 -5.5 -2.5t-2.5 -5.5v-394l4 -8q6 -6 12 0l344 197q4 4 4 8q3 3 1.5 5.5t-5.5 2.5v0v0zM733 392z" />
    <glyph glyph-name="iconbofangqizanting" unicode="&#xe6df;" 
d="M463 565q-8 8 -19 7h-3q-7 0 -12 -6q-1 -1 -2 -1v-1q-6 -8 -6 -20v-317q0 -12 6 -20v-1q1 -1 3 -2q5 -5 11 -5h2q11 -1 20 7l195 161q7 8 7 18.5t-7 17.5zM510.5 832q-90.5 0 -173.5 -35.5t-142.5 -95t-95 -142.5t-35.5 -173.5t35.5 -173.5t95 -142.5t142.5 -95
t173.5 -35.5t173.5 35.5t143 95t95 142.5t35 173.5t-35 173.5t-95 142.5t-143 95t-173.5 35.5zM510.5 -45q-116.5 0 -216 57.5t-157 157t-57.5 216t57.5 216t157 157t216 57.5t216 -57.5t157 -157t57.5 -216t-57.5 -216t-157 -157t-216 -57.5z" />
    <glyph glyph-name="iconbofangqibofang" unicode="&#xe6e0;" 
d="M413.5 548q-13.5 0 -23 -9.5t-9.5 -23.5v-256q0 -13 9.5 -22.5t23 -9.5t23 9.5t9.5 22.5v256q0 14 -9.5 23.5t-23 9.5zM510.5 832q-90.5 0 -173.5 -35.5t-142.5 -95t-95 -142.5t-35.5 -173.5t35.5 -173.5t95 -142.5t142.5 -95t173.5 -35.5t173.5 35.5t143 95t95 142.5
t35 173.5t-35 173.5t-95 142.5t-143 95t-173.5 35.5zM510.5 -45q-116.5 0 -216 57.5t-157 157t-57.5 216t57.5 216t157 157t216 57.5t216 -57.5t157 -157t57.5 -216t-57.5 -216t-157 -157t-216 -57.5zM605.5 548q-13.5 0 -23 -9.5t-9.5 -23.5v-256q0 -13 9.5 -22.5t23 -9.5
t23 9.5t9.5 22.5v256q0 14 -9.5 23.5t-23 9.5z" />
    <glyph glyph-name="icon1" unicode="&#xe60c;" 
d="M487 218l-217 225q-9 10 -9 24q0 15 10 25q11 10 25 9.5t24 -10.5l192 -199l192 199q10 10 24 10.5t24.5 -9.5t11 -24.5t-9.5 -24.5l-217 -225q-10 -11 -25 -11t-25 11z" />
    <glyph glyph-name="youjian" unicode="&#xe696;" 
d="M982 677h-940h-9h-19h-14v-656h1024v656h-35h-7zM941 636l-395 -396q-14 -13 -34 -13t-34 13l-395 396h858zM41 619l266 -266l-266 -265v531zM74 62l262 263l113 -114q26 -26 63 -26t63 26l113 114l262 -263h-876zM983 88l-266 265l266 266v-531z" />
    <glyph glyph-name="recommend" unicode="&#xe647;" horiz-adv-x="1025" 
d="M1005 495q-17 27 -44 42.5t-57 16.5l-246 1q25 72 25 147q0 38 -7 78l-4 19q-10 43 -44 70t-78 27q-51 0 -87.5 -36.5t-36.5 -88.5v-11q-1 -43 -25.5 -89.5t-57 -80t-65 -55.5t-51.5 -22h-1h-182q-18 0 -31 -13t-13 -31v-511q0 -18 13.5 -30t33.5 -13l159 1l6 -2l5 1h603
q33 2 59 19q30 20 42 45l8 13q18 44 42.5 152t35 167.5t16.5 94.5l1 12q3 42 -19 77zM173 -11h-99v449h99v-449zM863 25l-5 -8q-6 -13 -18 -20q-11 -7 -23 -8h-570v453q37 8 80 37.5t81.5 72.5t64.5 100t27 112v7q0 21 15 36t35 15q18 0 32 -11t18 -28l4 -18q5 -31 5 -63
q0 -63 -21 -123l-34 -97h337l8 -1q28 -1 43 -25q9 -15 8 -38q-4 -22 -15 -85.5t-33.5 -166.5t-38.5 -141z" />
    <glyph glyph-name="icon" unicode="&#xe67a;" 
d="M542 779zM441 779q0 42 29.5 71.5t71.5 29.5t71.5 -29.5t29.5 -71.5t-29.5 -71.5t-71.5 -29.5t-71.5 29.5t-29.5 71.5zM542 376zM441 376q0 42 29.5 71.5t71.5 29.5t71.5 -29.5t29.5 -71.5t-29.5 -71.5t-71.5 -29.5t-71.5 29.5t-29.5 71.5zM643 -27q0 -42 -29.5 -71.5
t-71.5 -29.5t-71.5 29.5t-29.5 71.5t29.5 71.5t71.5 29.5t71.5 -29.5t29.5 -71.5z" />
    <glyph glyph-name="wode" unicode="&#xe623;" 
d="M858 403q0 91 -45 168.5t-122.5 122.5t-168.5 45t-168.5 -45t-122.5 -122.5t-45 -168.5q0 -70 27 -132.5t76 -109.5v0l5 -5l0.5 -0.5t1.5 -0.5q8 -8 18 -16q6 -4 6 -5q9 -6 20 -13l6 -4q10 -7 21 -12q5 -3 7 -4l22 -10q4 -1 6 -2q13 -5 25 -8q1 -1 4 -2q14 -3 27 -6l4 -1
l28 -4h1h1q16 -1 30 -1t30 1h1h2q13 2 27 4q1 0 2.5 0.5l1.5 0.5q13 2 27 6q4 1 4 2q13 3 25 8q2 1 6 2q12 5 23 10q1 1 6 4q11 6 21 12q1 1 6 4q11 7 20 13q1 1 6 5q10 8 19 16l0.5 0.5t1.5 0.5l5 5v0q48 47 75 109.5t27 132.5v0zM215 403q0 127 90 217t217 90t217 -90
t90 -217q0 -116 -78 -204q-13 70 -63.5 121t-119.5 64q38 15 62 48.5t24 74.5q0 55 -39 93.5t-93 38.5t-92.5 -38.5t-38.5 -93.5q0 -41 23.5 -74.5t61.5 -48.5q-69 -13 -119.5 -64t-63.5 -121q-78 88 -78 204v0zM720 169q-2 -2 -7 -6q-9 -7 -16 -12q-3 -2 -8 -5
q-8 -6 -16 -10q-5 -3 -9 -5q-8 -4 -17 -8q-7 -3 -10 -4q-7 -3 -17 -7q-8 -3 -11 -3q-6 -2 -17 -5q-10 -2 -11 -2q-7 -2 -19 -3q-1 0 -4.5 -0.5t-5.5 -1.5q-16 -1 -30 -1t-30 1q-2 1 -5.5 1.5t-4.5 0.5q-12 1 -19 3q-1 0 -11 2q-11 3 -17 5q-3 0 -11 3q-10 4 -17 7
q-4 1 -10 4q-9 4 -17 8q-4 2 -8 5q-9 4 -17 10q-5 3 -8 5q-7 5 -15 12q-6 4 -8 6q-1 1 -3 2.5t-2 2.5q7 79 65.5 132.5t137.5 53.5t137.5 -53.5t65.5 -132.5q0 -1 -2 -2.5t-3 -2.5v0zM420 507q0 43 30 73t72 30t72 -30t30 -72.5t-30 -72.5t-72 -30t-72 30t-30 72v0z" />
    <glyph glyph-name="microphoneicon" unicode="&#xe627;" 
d="M813 388q-4 -113 -81.5 -195.5t-189.5 -93.5v-182h113q9 0 16 -6.5t7 -16t-7 -16t-16 -6.5h-271q-9 0 -15.5 6.5t-6.5 16t6.5 16t15.5 6.5h113v181q-117 6 -199 89.5t-86 200.5q0 3 0.5 7.5t6 11.5t15.5 7q9 0 14.5 -5t7 -9t1.5 -6q1 -104 76 -177.5t179 -73.5
t178.5 72.5t77.5 176.5q0 3 1 7t6.5 9.5t15.5 5.5q9 0 14.5 -7t6.5 -11.5t1 -7.5zM511 203q-81 0 -138 57t-57 138v301q0 81 57 138.5t138 57.5t138.5 -57.5t57.5 -138.5v-301q0 -81 -57.5 -138t-138.5 -57v0zM662 699q0 63 -44 107t-106.5 44t-106.5 -44t-44 -107v-301
q0 -62 44 -106t106.5 -44t106.5 44t44 106v301zM621 -128v0v0v0v0z" />
    <glyph glyph-name="crown" unicode="&#xe63f;" 
d="M896 608q-40 0 -68 -28t-28 -68q0 -20 8 -38l-136 -58l-114 204q23 13 36.5 35t13.5 49q0 40 -28 68t-68 28t-68 -28t-28 -68q0 -27 13.5 -49t36.5 -35l-114 -204l-136 58q8 18 8 38q0 40 -28 68t-68 28t-68 -28t-28 -68t28 -68t68 -28q10 0 22 3l74 -323v-64
q0 -27 18.5 -45.5t45.5 -18.5h448q27 0 45.5 18.5t18.5 45.5v64l74 323q12 -3 22 -3q40 0 68 28t28 68t-28 68t-68 28zM512 736q13 0 22.5 -9.5t9.5 -22.5t-9.5 -22.5t-22.5 -9.5t-22.5 9.5t-9.5 22.5t9.5 22.5t22.5 9.5zM96 512q0 13 9.5 22.5t22.5 9.5t22.5 -9.5
t9.5 -22.5t-9.5 -22.5t-22.5 -9.5t-22.5 9.5t-9.5 22.5zM736 32h-448v64h448v-64zM749 160h-474l-56 243l108 -46q12 -5 25 -5q38 0 56 33l104 187l104 -187q18 -33 56 -33q13 0 25 5l108 46zM896 480q-13 0 -22.5 9.5t-9.5 22.5t9.5 22.5t22.5 9.5t22.5 -9.5t9.5 -22.5
t-9.5 -22.5t-22.5 -9.5z" />
    <glyph glyph-name="single" unicode="&#xe603;" horiz-adv-x="1208" 
d="M66 206q17 4 26 19.5t4 32.5q-11 38 -11 79q0 121 86 207t207 86h174q3 43 16 85h-190q-75 0 -144.5 -28.5t-123 -82t-82 -123t-28.5 -144.5q0 -52 14 -102q4 -14 15.5 -22.5t25.5 -8.5q6 0 11 2zM685 76h-397v76q0 18 -11.5 24t-26.5 -3l-182 -113q-15 -9 -15.5 -23
t15.5 -24l182 -118q16 -10 27 -4t11 24v76h397q75 0 144.5 28.5t122.5 82.5q69 69 96 161q-48 -18 -100 -22q-37 -74 -107.5 -119.5t-155.5 -45.5zM919 896q-120 0 -204.5 -84.5t-84.5 -204t84.5 -204.5t204.5 -85t204.5 85t84.5 204.5t-84.5 204t-204.5 84.5zM973 454h-56
v218q-30 -28 -77 -41v55q23 5 48 19q26 16 43 33h42v-284z" />
    <glyph glyph-name="zanting" unicode="&#xe606;" 
d="M392 595q-18 0 -30.5 -12.5t-12.5 -29.5v-338q0 -17 12.5 -29.5t30.5 -12.5t30.5 12.5t12.5 29.5v338q0 17 -12.5 29.5t-30.5 12.5zM632 595q-18 0 -30.5 -12.5t-12.5 -29.5v-338q0 -17 12.5 -29.5t30.5 -12.5t30.5 12.5t12.5 29.5v338q0 17 -12.5 29.5t-30.5 12.5z
M512 -128q-104 0 -199 40.5t-163.5 109t-109 163.5t-40.5 199t40.5 199t109 163.5t163.5 109t199 40.5t199 -40.5t163.5 -109t109 -163.5t40.5 -199t-40.5 -199t-109 -163.5t-163.5 -109t-199 -40.5zM512 844q-93 0 -178.5 -36.5t-147 -98t-98 -147t-36.5 -178.5
t36.5 -178.5t98 -147t147 -98t178.5 -36.5t178.5 36.5t147 98t98 147t36.5 178.5t-36.5 178.5t-98 147t-147 98t-178.5 36.5z" />
    <glyph glyph-name="trash" unicode="&#xe651;" 
d="M794 794h-180v25q0 32 -22.5 54.5t-53.5 22.5h-103q-32 0 -54.5 -22.5t-22.5 -54.5v-25h-179q-32 0 -54.5 -22.5t-22.5 -54.5v-51q0 -25 14.5 -45t37.5 -28v-644q0 -32 22.5 -54.5t53.5 -22.5h512q32 0 54.5 22.5t22.5 54.5v644q23 8 37 28t14 45v51q0 32 -22.5 54.5
t-53.5 22.5zM410 819q0 11 7.5 18.5t17.5 7.5h103v0q10 0 17.5 -7.5t7.5 -18.5v-25h-153v25zM742 -77h-512q-10 0 -17.5 7.5t-7.5 18.5v640h563v-640q0 -11 -7.5 -18.5t-18.5 -7.5zM819 666q0 -11 -7.5 -18.5t-17.5 -7.5h-615q-10 0 -17.5 7.5t-7.5 18.5v51q0 10 7.5 17.5
t17.5 7.5h615v0q10 0 17.5 -7.5t7.5 -17.5v-51zM640 538v0q-11 0 -18.5 -7.5t-7.5 -18.5v-512q0 -11 7.5 -18.5t18.5 -7.5t18.5 7.5t7.5 18.5v512q0 11 -7.5 18.5t-18.5 7.5zM486 538v0q-10 0 -17.5 -7.5t-7.5 -18.5v-512q0 -11 7.5 -18.5t18 -7.5t18 7.5t7.5 18.5v512
q0 11 -7.5 18.5t-18.5 7.5zM333 538v0q-11 0 -18.5 -7.5t-7.5 -18.5v-512q0 -11 7.5 -18.5t18 -7.5t18 7.5t7.5 18.5v512q0 11 -7.5 18.5t-17.5 7.5z" />
    <glyph glyph-name="yinliang" unicode="&#xe60b;" 
d="M664 535q-4 11 -14 15q-9 5 -18 4q-11 -2 -18 -11.5t-5 -21.5q2 -13 14 -20q43 -47 43 -110q0 -70 -51 -118q-10 -9 -10 -21t8 -20t19.5 -8t19.5 8q8 5 12 15q56 61 56 144q0 82 -56 144zM761 636q-8 16 -25 16q-12 0 -20 -8.5t-8 -19.5q0 -16 13 -25q77 -81 77 -192
q0 -62 -25 -116.5t-70 -93.5q-16 -8 -16 -24q0 -12 8.5 -20t19.5 -8q14 0 23 11v0v1q54 46 84 111t30 139q1 132 -91 229zM464 684l-139 -142h-84q-54 0 -54 -54v-180q0 -26 14 -40t40 -14h84l139 -142q20 -18 43.5 -20t40.5 15t17 46v489q0 30 -17 46.5t-41 15t-43 -19.5z
M511 181q0 -13 -2.5 -19t-7.5 -3.5t-9 5.5t-12 12q-4 3 -6 5q-35 34 -122 127h-75q-21 0 -28.5 8t-7.5 28v108q0 20 8 28t28 8h76q79 85 121 126l6 6l10 10t8 6t7 1.5t4 -7.5t2 -17v-432z" />
    <glyph glyph-name="yinyue" unicode="&#xe680;" 
d="M179 -128q-74 0 -126.5 52.5t-52.5 126.5q0 75 52 127t127 52q57 0 110 -37l9 -7v575q0 26 18 44.5t42 18.5l603 70q25 1 44 -17t19 -44v-672q0 -76 -54 -126q-51 -51 -125 -51t-126.5 52t-52.5 127q0 74 52 126.5t127 52.5q61 0 109 -37l9 -7v312l-605 -65v-494
q-1 -75 -53 -127t-126 -52zM179 168q-49 0 -83.5 -35t-34.5 -84t34.5 -84t83.5 -35t84 35t35 84q-2 50 -36 84.5t-83 34.5zM845 279q-49 0 -84 -35t-35 -83.5t35 -83.5t84 -35t83.5 35t34.5 83.5t-34.5 83.5t-83.5 35zM356 605l605 65v165l-598 -69h-7v-161z" />
    <glyph glyph-name="xiazai4" unicode="&#xe62d;" 
d="M542 254q-5 -5 -13 -5t-13 5l-180 180q-5 5 -5 13t5 13.5t13 5.5t14 -6l179 -179q7 -6 7 -13.5t-7 -13.5zM721.5 460.5q5.5 -5.5 5.5 -13.5t-5 -13l-180 -180q-5 -5 -13 -5t-13.5 5.5t-5.5 13t6 13.5l179 179q6 6 13.5 6t13 -5.5zM548 280q0 -9 -5.5 -14.5t-13.5 -5.5
t-13.5 5.5t-5.5 14.5v424q0 9 5.5 14.5t13.5 5.5t13.5 -5.5t5.5 -14.5v-424zM856.5 377q-8.5 0 -14 -6t-5.5 -14v-183q0 -12 -8.5 -20.5t-20.5 -8.5h-558q-12 0 -20.5 8.5t-8.5 20.5v183q0 8 -5.5 14t-14 6t-14 -6t-5.5 -14v-193q0 -24 17 -41t41 -17h579q24 0 41 17t17 41
v193q-1 9 -6.5 14.5t-14 5.5z" />
    <glyph glyph-name="yinle" unicode="&#xe629;" 
d="M308 -128h-10q-36 0 -77.5 20.5t-63.5 49.5q-47 67 -16.5 159.5t120.5 155t187 59.5t143.5 -70t16 -159t-120.5 -154q-33 -24 -85.5 -42t-93.5 -19zM441 262q-34 -1 -77.5 -16t-70.5 -35q-71 -50 -98 -119.5t7 -117.5t108 -47t145 51t98 119t-7 117q-15 20 -43.5 34
t-53.5 14q-4 0 -8 -1v1zM591.5 115q-11.5 0 -19.5 8t-8 20v753l318 -201q13 -8 13 -24q0 -11 -8 -19t-20 -8q-8 0 -15 4l-233 147v-652q0 -12 -8 -20t-19.5 -8z" />
    <glyph glyph-name="faxian" unicode="&#xe644;" 
d="M512 -128q-104 0 -199 40.5t-163.5 109t-109 163.5t-40.5 199t40.5 198.5t109 163t163.5 109t199 40.5t198.5 -40.5t163 -109t109 -163t40.5 -198.5t-40.5 -199t-109 -163.5t-163 -109t-198.5 -40.5zM511.5 819q-88.5 0 -169 -34.5t-138.5 -93t-92.5 -139t-34.5 -169
t34.5 -169t92.5 -138.5t138.5 -92.5t169 -34.5t169 34.5t139 92.5t93 138.5t34.5 169t-34.5 169t-93 139t-139 93t-169 34.5zM381 509l347 142q9 2 26 -12.5t13 -20.5t-143 -352l-2 -6l-6 -2q-342 -135 -348 -139q-7 -5 -23.5 10.5t-13.5 24.5q7 17 142 347l2 6zM688 572
q-4 -2 -250 -114q-133 -257 -136 -262l-2 -6l1 -2q3 3 6 5q2 2 70.5 33t135 61l66.5 30l2 4q12 25 39 86t48 109.5t23 50.5q5 8 5 7l-8 -2v0zM473 353q-14 13 -14 33q0 19 13.5 32.5t32.5 13.5q20 0 34 -14q13 -14 13 -32q0 -19 -13.5 -32.5t-33.5 -13.5q-18 0 -32 13z" />
    <glyph glyph-name="pinglun" unicode="&#xe66d;" 
d="M950 238l-1 -5l-1 -2l-1 -2v-2l-1 -1l-1 -2l-1 -1l-1 -3l-1 -2l-1 -1l-1 -2v-1l-2 -2l-1 -1l-1 -1l-1 -1l-1 -3l-3 -2v-1h-2l-1 -2l-1 -2l-1 -1l-4 -2h-1l-1 -1l-1 -2v-1l-3 -1l-3 -1l-2 -1h-2l-2 -1l-1 -2l-1 -1l-3 -1l-8 -1l-316 -1h-3l-1 -1l-1 -1l-1 -1l-1 -1v-1
l-2 -1v-1h-2v-1q-1 -4 -6 -7t-5 -7q-6 -1 -9 -6q-1 -1 -4 -3t-3 -6l-5 -1l-4 -2v-4l-9 -4q0 -3 -0.5 -3.5t-2 -1t-3 -1.5t-1.5 -2.5t-0.5 -2.5t-4.5 -1v-2h-1l-1 -6l-2 -1h-4l-4 -6q-5 0 -10 -7l-3.5 -2.5t-3.5 -5.5q-5 -1 -6 -2t-1.5 -3t-1.5 -3l-3.5 -1t-4.5 -6
q-9 -1 -17 -15q-3 0 -4.5 -1t-3 -2.5l-3.5 -3.5q-1 -1 -4 -5q0 -1 -3 -2q-1 -1 -2 -1l-5 -5t-8 -7.5t-6 -3.5v-2q-2 -1 -3.5 -3t-5.5 -3l-12 -14l1 -1q-8 0 -9 -6h-3q-7 0 -7 5v3q0 4 5 5l2 14l8 10q0 6 1 9.5t1.5 4t1.5 1t2 3.5h1v0l1 16l6 3l2 15l5 4l1 8v5q6 2 6 12h2v7
q0 2 4 5.5t4 11.5l7 12h-1l2 1h1v11h2q1 1 2.5 3.5t1.5 3.5v4q0 2 -2 2.5t-6.5 0t-5.5 -0.5h-298q-11 0 -15 8q-7 0 -10 4t-9 5q0 4 -3.5 8t-4.5 6h-5l-3 14l-5 1l-1 10v501q0 9 5 9l4 14l6 4q1 4 4.5 6.5t3.5 5.5h6l1 1l1 1l2 1l1 1h1l1 1v1l1 1l3 1l3 1l6 2h1l1 1l2 1l1 1
l5 1h766l5 -1l1 -1l1 -1l3 -1h1l2 -1l7 -2l1 -1l2 -1l1 -1l1 -1v0l1 -1l2 -1l2 -1l2 -1v-1l1 -1l1 -1l1 -1l1 -1l1 -1l2 -1v-1l1 -1l1 -1l1 -2l1 -1l1 -2l1 -1l1 -1l1 -1l1 -2l1 -3l1 -1l1 -3l1 -1l2 -5l1 -2l1 -6l1 -11v-475l-1 -12v0v0zM478 42h2l1 1h1l1 1l1 1v1l2 5
q2 0 3.5 1t3.5 2q1 7 13 15h3v2h2q0 4 4 4v3h3q1 5 7 5q1 2 2.5 3.5t1.5 3.5h4l1.5 4.5t3 2.5t4.5 2l-1 7h8q1 3 5 6t4 7q6 0 9 4.5t7 4.5l1 5q10 3 11 10q3 0 9 1t11 1h234h21.5h21.5q6 0 17 4q8 3 20 2l4 6h4h6t3.5 2t1.5 6q1 0 2.5 0.5t3.5 0.5h2l3 6h4q1 4 5.5 7t4.5 7
q4 1 6.5 5.5t5.5 4.5v4q0 3 3.5 8.5t4.5 9.5l2 -2l1 1v541q-3 1 -4 0v1q0 1 -1 4q-1 4 -5 7l-3 10l-4 1l-2 8h-5l-1 6q-3 2 -6 5.5t-7 3.5l-1 4h-2v4q-4 0 -8.5 3.5t-10.5 3.5h-6q0 3 -0.5 4t-2.5 1.5t-3 1.5l-22 1q-4 2 -11 2h-742l-33 -4l-11 -6l-11 -2q0 -4 -9 -7l-3 -6
h-5l-2 -8h-3l-4 -1q0 -5 -3 -6.5t-4 -2.5q0 -1 -1.5 -4t-2.5 -5.5l-1 -2.5h-3v-8q0 -5 -4 -6l-2 -4l-2 -52v-435l2 -53l3 -1l2 -5h1v-5q0 -5 3.5 -8t3.5 -4v-3l11 -10l4 -7h7v-3l3 -5q9 0 9 -7l12 -1l2 -5l24 -3q6 -4 9 -4h236l5 0.5t7.5 0t2.5 -3.5v-8q0 -2 -1 -5t-1 -5
l-6 -2v-16h-3l-4 -2v-8q0 -7 -4 -10.5t-4 -6.5v-10q-9 -2 -9 -13v-4q-7 -2 -7 -19q-7 -2 -7 -18v-28l1 -4l1 1l3 -4l6 -3q1 -5 3 -6t11 -1l5 -3v-2h9q5 0 7 4l13 1l6 7q4 0 9.5 5.5t6.5 8.5l7 4v4q4 0 7.5 4.5t7.5 5.5q3 1 3.5 3t2.5 3q4 2 4.5 2.5t1.5 4.5q7 0 8 7h2
q1 0 4 1l1 6q5 1 6.5 2.5t1.5 2.5v2t1.5 1.5t4.5 0.5l-3 -3v0v0zM217 500q0 -28 19.5 -48t48 -20t48.5 20t20 48t-20 48t-48.5 20t-48 -20t-19.5 -48zM676 500q0 -28 20 -48t48.5 -20t48 20t19.5 48t-19.5 48t-48 20t-48.5 -20t-20 -48zM443 500q0 -28 19.5 -48t48 -20
t48.5 20t20 48t-20 48t-48.5 20t-48 -20t-19.5 -48z" />
    <glyph glyph-name="iconfontpraise" unicode="&#xe624;" 
d="M911 487h-255q21 75 27.5 136.5t3 100t-15.5 68t-24.5 43.5t-27.5 23.5t-21 11t-10 1.5v0q-24 0 -38 -9t-17 -19.5t-4 -22.5t-2 -14q0 -50 -19.5 -101.5t-47 -88.5t-55.5 -67.5t-48 -45.5l-19 -16v-506q0 -23 19 -39.5t39 -22.5t37 -6h382q16 0 32.5 23.5t24.5 47.5l8 23
q42 144 66 251t26.5 132t2.5 36q0 19 -6.5 32t-16 18.5t-19 8.5t-15.5 2h-7zM233 487h-152q-14 0 -22 -7.5t-9 -15.5l-1 -8l31 -511q0 -14 8.5 -22t16.5 -9l8 -1h132q12 0 19 5.5t7 10.5l1 5v514q0 18 -9.5 27.5t-19.5 10.5z" />
    <glyph glyph-name="skin" unicode="&#xe8f1;" 
d="M698 -68l-31 1h-348q-38 0 -56 12q-21 12 -30 35q-4 12 -4 42v352l-12 -6q-33 -15 -69 9q-5 4 -17 16l-10 10l-38 36l-20 21q-13 11 -18 17l-6 6q-4 4 -6 5q-19 18 -25 32q-10 23 -7 39q6 30 38 58l12 12q9 8 13 13l165 161q18 18 33 24l25 7q68 4 90 0q14 -3 28 -15
q10 -8 21 -23l2 -2q8 -11 26 -18q14 -6 42 -11l20 -1q7 0 14 2q43 9 64 26q3 3 6 7q9 13 17 19l18 12q10 4 16 5h66q35 0 50 -9q12 -6 30 -24l155 -151l18 -18q14 -13 20 -20l6 -6q20 -20 26 -36l1 -7q0 -4 1 -6q4 -27 -18 -56l-2 -2l-98 -96q-30 -34 -58 -39q-28 -6 -52 9
v-283v-95l-1 -5q-6 -27 -26 -42q-22 -17 -71 -17zM340 -19h358q33 0 42 6q5 4 7 12q0 15 0.5 45.5t0.5 46.5v342l31 22l27 -26q20 -19 33 -16q11 2 31 24l3 3l96 94q8 11 7 18l-1 4v2q-3 7 -13 15l-6 7q-6 7 -19 18q-13 13 -20 19l-154 150q-12 13 -18 16q-2 2 -27 2h-18
q-4 0 -9.5 -0.5t-7.5 -0.5h-20q-1 0 -3.5 -0.5t-3.5 -0.5l-11 -6q0 -1 -2 -3.5t-4 -3.5q-7 -11 -15 -17q-32 -25 -85 -36q-21 -4 -33 -2l-17 2q-33 5 -54 14q-30 13 -46 33l-1 2q-7 9 -13 14l-5 2q-1 0 -3 1t-3 1h-62l-14 -1q-11 0 -25 -14l-29 -30l-136 -133
q-3 -2 -6.5 -5.5l-5.5 -5.5l-13 -13q-21 -19 -24 -32q0 -1 1.5 -5t2.5 -4q2 -7 13 -17q3 -2 7 -6l7 -8q13 -12 16 -14l2 -2q9 -11 20 -20l49 -48q8 -7 10 -9q12 -8 22 -4t25 19l19 22l35 -21v-413q0 -19 1 -24q3 -7 11 -11q6 -4 30 -4h20z" />
    <glyph glyph-name="ring" unicode="&#xe694;" 
d="M243 150q18 22 31 47q28 55 28 117v140q0 87 61.5 148.5t148.5 61.5t148.5 -61.5t61.5 -148.5v-140q0 -62 28 -117q13 -25 31 -47h-538zM582 80q0 -29 -20.5 -49.5t-49.5 -20.5t-49.5 20.5t-20.5 49.5q0 12 4 24h132q4 -12 4 -24zM489 734q0 10 6.5 17t16.5 7t16.5 -7
t6.5 -17v-24q-11 1 -22.5 1t-23.5 -1v24zM853 146q-40 30 -62 74t-22 94v140q0 87 -52.5 155.5t-134.5 91.5v33q0 29 -20.5 50t-49.5 21t-49.5 -21t-20.5 -50v-33q-82 -23 -134.5 -91.5t-52.5 -155.5v-140q0 -50 -22 -94t-62 -74q-14 -10 -8.5 -26t22.5 -16h213
q-3 -12 -3 -24q0 -48 34.5 -82.5t82.5 -34.5t82.5 34.5t34.5 82.5q0 12 -3 24h213q17 0 22.5 16t-8.5 26v0z" />
    <glyph glyph-name="bofangqi_shouyeshangyishou_" unicode="&#xe613;" 
d="M379 401l361 222q12 7 20 2.5t8 -17.5v-448q0 -13 -8 -17.5t-20 2.5l-361 222q-11 7 -11 17t11 17zM288 640q13 0 22.5 -9.5t9.5 -22.5v-448q0 -13 -9.5 -22.5t-22.5 -9.5t-22.5 9.5t-9.5 22.5v448q0 13 9.5 22.5t22.5 9.5z" />
    <glyph glyph-name="bofangqi_shouyexiayishou_" unicode="&#xe614;" 
d="M644 401l-361 222q-11 7 -19 2.5t-8 -17.5v-448q0 -13 8 -17.5t19 2.5l361 222q12 7 12 17t-12 17zM735.5 640q-13.5 0 -22.5 -9.5t-9 -22.5v-448q0 -13 9 -22.5t22.5 -9.5t23 9.5t9.5 22.5v448q0 13 -9.5 22.5t-23 9.5z" />
    <glyph glyph-name="bofangliebiao-copy" unicode="&#xe604;" 
d="M720 555v-45h-415v45h415zM719 427v-45h-414v45h414zM599 298v-45h-294v45h294zM628 213l91 74l-91 75v-149z" />
    <glyph glyph-name="shoucang" unicode="&#xe69d;" horiz-adv-x="1025" 
d="M1012 577q-16 110 -100.5 180.5t-191.5 70.5q-66 0 -127 -30q-13 -6 -26.5 -15t-31 -21t-26.5 -18q-2 1 -3 3q-86 81 -202 81q-78 0 -147 -40q-80 -46 -119 -129t-23 -174q16 -97 95 -176q52 -53 179.5 -181t160.5 -162q26 -26 63 -26t63 26q224 225 353 357
q103 106 83 254zM864 339l-326 -329l-11 -11q-11 -12 -24 0q-6 5 -49 48t-82.5 83l-39.5 40l-154 156l-31 30q-4 4 -11.5 12t-25.5 34.5t-29 55.5q-2 3 -4.5 10t-6.5 29t-4 44.5t8.5 55.5t26.5 63q31 55 87.5 84t120.5 25.5t117 -39.5q23 -18 30 -24q6 -5 13 -9.5t21.5 -10
t32.5 -3t35 13.5q6 4 17 12t17.5 12.5t18.5 12t19.5 11t21.5 10t24 8t26.5 5t29 2t32.5 -2.5q75 -8 128 -60.5t66 -117.5q14 -69 -4.5 -128t-89.5 -122z" />
    <glyph glyph-name="prev" unicode="&#xe609;" 
d="M832 800l-512 -416l512 -416v832zM768 109l-346 281l346 282v-563zM192 800h64v-832h-64v832z" />
    <glyph glyph-name="next" unicode="&#xe60a;" 
d="M192 800v-832l512 416zM256 672l346 -282l-346 -281v563zM768 800h64v-832h-64v832z" />
    <glyph glyph-name="shoucang1" unicode="&#xe615;" 
d="M708 803q-58 0 -109.5 -27.5t-87.5 -75.5q-36 48 -87.5 75.5t-109.5 27.5q-104 0 -178 -81t-74 -195q0 -42 13 -84t25.5 -64.5t34.5 -57.5q27 -42 72 -92t87 -90t87 -79t67 -56.5t31 -23.5q14 -12 32 -12t32 12q9 6 31 24t67 56.5t87 78.5t87 90t72 92q22 35 34.5 57.5
t25.5 64.5t13 84q0 114 -74 195t-178 81z" />
    <glyph glyph-name="qrcode" unicode="&#xe698;" 
d="M648 760h211q31 0 31 -30v-181q0 -13 11.5 -20t29.5 -7q15 0 24.5 10t9.5 25v175q0 43 -30 73.5t-74 30.5h-211q-14 0 -24 -10t-10 -25t9 -28t23 -13zM347 8h-182q-31 0 -31 30v166q0 14 -13 28t-28 14t-24 -10t-9 -25v-173q0 -43 30.5 -73t73.5 -30h173q14 0 24 10
t10 24q2 14 -4.5 26.5t-19.5 12.5zM94.5 522q14.5 0 28 14t13.5 28v167q0 31 30 31h166q14 0 28 13t14 28t-10 24t-25 9h-175q-43 0 -73.5 -30.5t-30.5 -73.5v-173q0 -15 10 -26t24.5 -11zM929.5 246q-14.5 0 -28 -14t-13.5 -28v-166q0 -30 -30 -30h-210q-14 0 -23 -12.5
t-9 -28.5q0 -15 10 -25t24 -10h208q43 0 73 30.5t30 73.5v175q2 14 -7.5 24.5t-24 10.5zM972 415h-920q-15 0 -26 -11t-11 -26.5t11 -26.5t26 -11h920q15 0 26 11t11 26.5t-11 26.5t-26 11z" />
    <glyph glyph-name="shangcheng" unicode="&#xe7a8;" 
d="M856 -96h-688q-30 0 -51 23.5t-21 56.5v432h64v-432q0 -5 1.5 -9t3.5 -5.5t3 -1.5h688q1 0 3 1.5t3.5 5.5t1.5 9v432h64v-432q0 -33 -21 -56.5t-51 -23.5zM679 154h-334q-30 0 -51 22.5t-21 54.5v178h64v-178q0 -5 2.5 -9t5.5 -4h334q3 0 5.5 4t2.5 9v178h64v-178
q0 -32 -21 -54.5t-51 -22.5zM898 370q-59 0 -97 44q-15 -18 -43.5 -31.5t-52.5 -13.5t-52.5 13.5t-44.5 31.5q-37 -44 -96 -44v0q-24 0 -52.5 13t-43.5 31q-16 -18 -44.5 -31t-52.5 -13t-52.5 13t-43.5 31q-16 -18 -44.5 -31t-52.5 -13v0q-47 0 -83.5 33t-42.5 79l3 36
q0 5 2 9l96 238q16 40 44 69q29 30 89 30h14h530h12q60 0 89 -30q27 -28 44 -68l96 -238q2 -5 2 -10l3 -29q-6 -53 -41.5 -86t-84.5 -33zM799 518q13 0 24 -8t13 -20q2 -23 20.5 -39.5t41.5 -16.5t41.5 16.5t20.5 39.5l-2 18l-95 233q-17 35 -30 49q-10 10 -43 10h-8h-537
h-11q-33 0 -43 -10q-13 -14 -30 -49l-95 -233l-2 -25q3 -19 21 -34t41 -15t41.5 16.5t20.5 39.5q2 12 11 20t21 8q13 0 24 -8t13 -20q2 -23 20.5 -39.5t41.5 -16.5q24 0 42 16t20 40q2 12 11 20.5t21 8.5q13 0 24.5 -8.5t12.5 -20.5q2 -23 20.5 -39.5t41.5 -16.5q24 0 42 16
t20 40q2 12 11 20.5t21 8.5q13 0 24 -8.5t13 -20.5q2 -23 20.5 -39.5t41.5 -16.5t41.5 16.5t20.5 39.5q2 12 11 20t21 8v0z" />
    <glyph glyph-name="huiyuan" unicode="&#xe8a3;" 
d="M67 768h255v-64h-255v64zM131 710h191v-710h-191v710zM959 768l-637 -768l-186 180l503 588h320z" />
    <glyph glyph-name="kaiguan" unicode="&#xe677;" 
d="M1004 385zM489 -125q-95 0 -181.5 36.5t-149 98.5t-99.5 147.5t-37 180.5q0 143 80 259t210 169v0q7 2 16 2v0q20 0 34 -14t14 -34q0 -15 -9 -27.5t-23 -17.5v0q-101 -42 -163 -133.5t-62 -203.5q0 -100 49.5 -184.5t134.5 -133.5t185.5 -49t186 49t135 133.5t49.5 184.5
q0 112 -62.5 203.5t-163.5 133.5v0q-14 5 -23 17.5t-9 27.5q0 20 14.5 34t34.5 14q8 0 16 -2v0q129 -53 209 -169t80 -259q0 -95 -37 -180.5t-99.5 -147.5t-148.5 -98.5t-181 -36.5zM489 369q-20 0 -34.5 14.5t-14.5 33.5v431q0 20 14.5 34t34.5 14t34 -14t14 -34v-431
q0 -19 -14 -33.5t-34 -14.5z" />
    <glyph glyph-name="zhengzaibofang" unicode="&#xe639;" horiz-adv-x="1062" 
d="M0 -128h118v591h-118v-591zM315 896v-1024h118v1024h-118zM630 -128h118v591h-118v-591zM945 896v-1024h118v1024h-118z" />
    <glyph glyph-name="guanyu" unicode="&#xe620;" 
d="M768 827q-119 69 -255.5 69t-256.5 -69q-117 -68 -186.5 -186t-69.5 -257q0 -104 40.5 -198.5t109.5 -163.5t163.5 -109.5t198.5 -40.5t198.5 40.5t163.5 109.5t109.5 163.5t40.5 198.5q0 139 -69.5 257t-186.5 186zM512 -68q-92 0 -176 36t-144.5 96.5t-96 144
t-35.5 175.5q0 109 48.5 203.5t132.5 157.5q120 91 271 91t271 -91q84 -63 132.5 -157.5t48.5 -203.5q0 -92 -36 -175.5t-96.5 -144t-144 -96.5t-175.5 -36zM512 512q-18 0 -30 -12.5t-12 -29.5v-342q0 -18 12 -30t30 -12t30 12t12 30v342q0 17 -12 29.5t-30 12.5zM512 682
q-18 0 -30 -12t-12 -30t12 -30t30 -12t30 12t12 30t-12 30t-30 12v0z" />
  </font>
</defs>
</svg>
